<svg width="960" height="780" viewBox="0 0 960 780" fill="none" xmlns="http://www.w3.org/2000/svg">
  <rect width="960" height="780" rx="48" fill="#F8F6F2"/>
  <rect x="90" y="90" width="780" height="600" rx="36" fill="#FFFFFF" stroke="#E8E5DF" stroke-width="2"/>
  <rect x="144" y="154" width="300" height="188" rx="24" fill="#FDFBF7" stroke="#E8E5DF" stroke-width="2"/>
  <rect x="146" y="158" width="110" height="14" rx="7" fill="#002147" fill-opacity="0.12"/>
  <rect x="146" y="182" width="240" height="12" rx="6" fill="#002147" fill-opacity="0.10"/>
  <rect x="146" y="204" width="180" height="12" rx="6" fill="#002147" fill-opacity="0.10"/>
  <rect x="146" y="226" width="210" height="12" rx="6" fill="#002147" fill-opacity="0.10"/>
  <rect x="146" y="252" width="160" height="12" rx="6" fill="#002147" fill-opacity="0.10"/>
  <rect x="486" y="154" width="330" height="300" rx="28" fill="#F8F6F2"/>
  <rect x="516" y="188" width="136" height="180" rx="20" fill="#002147"/>
  <rect x="668" y="188" width="112" height="120" rx="20" fill="#FFFFFF" stroke="#E8E5DF" stroke-width="2"/>
  <rect x="668" y="324" width="112" height="44" rx="12" fill="#E07A5F"/>
  <circle cx="584" cy="274" r="54" fill="#D4AF37"/>
  <path d="M548 278C548 248.177 572.177 224 602 224H606C635.823 224 660 248.177 660 278V286H548V278Z" fill="#1A3C34"/>
  <path d="M566 240C566 215.699 584.699 197 609 197C633.301 197 652 215.699 652 240V252H566V240Z" fill="#002147"/>
  <rect x="166" y="384" width="624" height="220" rx="28" fill="#FDFBF7" stroke="#E8E5DF" stroke-width="2"/>
  <rect x="208" y="430" width="140" height="110" rx="20" fill="#002147"/>
  <path d="M238 500H318" stroke="#FFFFFF" stroke-width="10" stroke-linecap="round"/>
  <path d="M250 470H306" stroke="#FFFFFF" stroke-width="10" stroke-linecap="round"/>
  <rect x="378" y="430" width="138" height="110" rx="20" fill="#FFFFFF" stroke="#E8E5DF" stroke-width="2"/>
  <path d="M410 474H480" stroke="#E07A5F" stroke-width="8" stroke-linecap="round"/>
  <path d="M410 498H464" stroke="#E07A5F" stroke-width="8" stroke-linecap="round"/>
  <rect x="544" y="430" width="140" height="110" rx="20" fill="#F8F6F2" stroke="#E8E5DF" stroke-width="2"/>
  <path d="M566 500L596 472L626 494" stroke="#1A3C34" stroke-width="8" stroke-linecap="round" stroke-linejoin="round"/>
  <circle cx="720" cy="214" r="22" fill="#E07A5F" fill-opacity="0.16"/>
  <circle cx="748" cy="260" r="12" fill="#D4AF37" fill-opacity="0.28"/>
  <rect x="200" y="112" width="154" height="24" rx="12" fill="#E07A5F" fill-opacity="0.12"/>
  <rect x="200" y="112" width="96" height="24" rx="12" fill="#E07A5F"/>
</svg>
